<?xml version="1.0" encoding="utf-8"?>
<svg viewBox="0 0 500 500" xmlns="http://www.w3.org/2000/svg">
  <g stroke-width="2.00" fill="none" stroke-linecap="butt" transform="matrix(0.405282, 0, 0, 0.405282, 32.16848, 1.585819)" style="">
    <path stroke="#808080" vector-effect="non-scaling-stroke" d="M 1066.396 460.123 C 1066.396 460.123 1066.553 444.303 1066.46 443.95 C 1064.79 437.91 1063.2 433.07 1061.18 425.95 C 1059.447 419.797 1056.377 414.49 1051.97 410.03 C 1036.93 394.79 1016.91 393.11 998.26 404.07 C 997.953 404.25 997.69 404.203 997.47 403.93 C 981.61 384.34 956.84 378.58 933.97 388.96 C 933.512 389.17 932.975 389.12 932.56 388.83 C 913.1 375.24 887.7 379.97 870.69 395.48 C 870.443 395.707 870.153 395.793 869.82 395.74 C 858.98 393.98 848 394.6 838.51 400.6 C 838.393 400.687 838.225 400.615 838.208 400.469 C 838.203 400.424 838.214 400.378 838.24 400.34 C 843.76 391.34 845.96 381.657 844.84 371.29 C 844.4 367.29 842.99 363.55 841.69 359.62 C 838.78 350.88 837.97 344.02 831.32 336.53 C 831.073 336.25 830.98 335.93 831.04 335.57 L 875.07 66.52 C 875.123 66.18 874.98 66.01 874.64 66.01 C 738.46 65.99 602.183 65.993 465.81 66.02 C 448.33 66.02 435.45 68.11 420.86 75.96 C 420.572 76.111 420.228 76.111 419.94 75.96 C 407.653 69.333 395.09 66.017 382.25 66.01 C 332.67 65.997 283.083 65.993 233.49 66 C 233.163 66 233 66.167 233 66.5 L 233 279.06 C 233 279.5 232.78 279.72 232.34 279.72 C 226.2 279.78 219.58 279.72 214.06 280.69 C 205.893 282.123 198.107 284.763 190.7 288.61 C 189.82 289.07 188.21 289.17 187.48 288.78 C 176.273 282.76 164.283 279.75 151.51 279.75 C 127.503 279.75 103.503 279.747 79.51 279.74 C 70.563 279.74 63.917 280.097 59.57 280.81 C 37.11 284.52 15.48 298.58 5.73 319.66 C 3.07 325.407 1.16 331.523 0 338.01"/>
    <path stroke="#808080" vector-effect="non-scaling-stroke" d="M 1066.39 460.07 C 1065.283 467.11 1062.88 473.147 1059.18 478.18 C 1028.02 520.62 953.5 583.02 899.76 538.35 C 899.557 538.182 899.253 538.229 899.11 538.45 C 882.09 564.69 846.33 567.91 825.69 543.87 C 825.463 543.603 825.237 543.607 825.01 543.88 C 808.78 563.75 786.76 576.78 760.48 576.76 C 760.127 576.76 759.96 576.933 759.98 577.28 C 760.333 585.027 761.257 591.85 762.75 597.75 C 765.297 607.823 766.633 614.65 766.76 618.23 C 768.38 665.52 708.05 683.78 683.35 644.32 C 683.132 643.982 682.633 643.992 682.43 644.34 C 667.53 669.81 644.66 689.53 619.78 704.76 C 597.19 718.59 537.486 719.975 517.434 705.13 C 511.326 700.608 465.195 675.604 533.393 613.88 C 540.741 607.23 560.259 587.091 518.749 588.238 C 489.384 589.049 457.453 544.064 457.486 544.157"/>
    <path stroke="#808080" vector-effect="non-scaling-stroke" d="M 458.326 544.3 C 454.725 543.927 402.289 558.104 363.712 544.518 C 348.231 539.066 330.591 548.941 318.544 550.303 C 285.405 554.05 234.756 553.804 217.305 550.875 C 186.402 545.688 194.26 547.715 163.732 554.177 C 142.388 558.695 67.397 555.703 63.57 555.19 C 33.19 551.1 5.16 530.67 0.57 498.82 C 0.49 498.293 0.397 498.29 0.29 498.81 L 0.004 337.527"/>
    <path stroke="#9aaad0" vector-effect="non-scaling-stroke" d=" M 585.12 585.82 Q 569.19 598.07 554.86 610.37 Q 550.24 614.33 538.63 626.36 Q 524.52 640.96 522.82 658.03"/>
    <path stroke="#808080" vector-effect="non-scaling-stroke" d=" M 522.82 658.03 C 511.20 685.56 532.92 702.14 558.68 698.14 C 590.86 693.14 618.58 675.56 641.31 652.96 C 655.57 638.78 673.56 612.18 660.32 591.71"/>
    <path stroke="#9aaad0" vector-effect="non-scaling-stroke" d=" M 660.32 591.71 Q 660.38 585.14 657.08 579.12"/>
    <path stroke="#808080" vector-effect="non-scaling-stroke" d=" M 657.08 579.12 L 694.82 545.01 Q 695.24 544.62 695.29 545.19 C 696.06 554.90 695.78 561.84 696.42 570.17 C 697.68 586.30 698.98 601.90 702.21 617.81 C 704.47 628.92 710.97 638.64 723.25 637.84 C 731.76 637.29 738.11 631.75 738.96 623.17 Q 739.29 619.85 737.37 611.91 C 731.57 587.83 730.31 562.01 730.02 537.30 Q 729.77 515.77 729.25 494.25 C 728.69 470.86 728.99 447.40 729.02 424.00 C 729.02 420.48 729.80 416.88 730.14 413.32 A 1.28 1.27 -8.3 0 1 730.94 412.25 C 750.31 404.52 772.28 400.88 792.70 396.74 Q 802.65 394.72 806.93 392.20 C 816.83 386.40 821.75 375.20 812.53 366.14"/>
    <path stroke="#9aaad0" vector-effect="non-scaling-stroke" d=" M 812.53 366.14 Q 814.27 357.59 808.78 353.30 C 802.74 348.59 794.02 349.97 786.67 351.88 Q 759.36 359.02 732.03 366.46"/>
    <path stroke="#808080" vector-effect="non-scaling-stroke" d=" M 732.03 366.46 Q 731.30 359.05 727.10 353.55"/>
    <path stroke="#9aaad0" vector-effect="non-scaling-stroke" d=" M 727.10 353.55 C 728.53 340.23 713.59 328.34 703.50 341.28 C 700.20 345.52 700.13 350.88 699.80 355.75"/>
    <path stroke="#808080" vector-effect="non-scaling-stroke" d=" M 699.80 355.75 Q 695.09 364.30 696.31 374.02"/>
    <path stroke="#9aaad0" vector-effect="non-scaling-stroke" d=" M 696.31 374.02 L 695.82 374.83 Q 695.53 375.30 695.03 375.51 Q 684.66 379.79 673.64 382.24 Q 671.53 382.71 671.05 380.59 C 668.33 368.48 665.02 358.93 652.91 353.83 C 635.11 346.33 612.17 353.14 594.99 360.13 Q 559.11 374.74 529.36 399.88 A 1.70 1.69 18.6 0 1 528.63 400.24 Q 527.64 400.45 527.49 400.25"/>
    <path stroke="#808080" vector-effect="non-scaling-stroke" d=" M 527.49 400.25 L 527.49 311.62 A 0.63 0.63 0.0 0 1 528.13 310.99 C 533.21 311.04 538.81 311.23 543.51 310.48 C 561.10 307.69 580.00 294.74 580.00 275.25 Q 580.00 239.91 580.01 204.56 Q 580.01 204.18 580.30 204.03 Q 580.58 203.88 580.64 204.20 L 598.07 310.45 Q 598.16 311.00 598.71 311.00 L 695.59 311.00 A 1.09 1.08 -85.3 0 0 696.66 310.09 L 702.31 276.01 A 0.18 0.18 0.0 0 1 702.67 276.01 L 708.15 309.91 A 1.30 1.30 0.0 0 0 709.43 311.00 L 806.58 311.00 A 0.45 0.45 0.0 0 0 807.02 310.63 L 842.36 94.74 Q 842.48 94.00 841.73 94.00 L 755.76 94.00 Q 755.32 94.00 755.26 94.43 L 749.90 130.75 A 0.27 0.27 0.0 0 1 749.36 130.75 L 744.26 95.05 A 1.22 1.22 0.0 0 0 743.05 94.00 L 661.76 94.00 A 0.85 0.84 3.9 0 0 660.92 94.73 L 655.69 130.99 Q 655.49 132.35 655.30 130.99 L 649.98 94.57 Q 649.90 94.00 649.32 94.00 L 563.62 94.00 Q 562.64 94.00 562.81 94.96 L 563.94 101.53 A 0.42 0.42 0.0 0 1 563.30 101.96 C 550.75 94.05 541.67 94.02 524.88 94.00 Q 493.44 93.97 462.02 94.03 Q 451.68 94.05 446.26 95.44 Q 430.98 99.37 420.67 112.16 A 0.31 0.30 44.5 0 1 420.20 112.16 C 401.72 89.74 374.15 91.36 348.41 98.35 A 0.51 0.51 0.0 0 1 347.76 97.86 L 347.76 94.66 A 0.66 0.66 0.0 0 0 347.10 94.00 L 261.50 94.00 Q 261.00 94.00 261.00 94.50 L 261.00 306.75 Q 261.00 307.26 260.49 307.25 C 234.34 307.21 208.85 302.93 189.23 324.59 Q 188.89 324.97 188.55 324.59 Q 173.26 307.56 150.49 307.28 Q 134.97 307.09 80.83 307.29 Q 66.92 307.34 60.95 308.77 C 45.55 312.46 28.00 325.70 28.00 343.00 Q 27.99 416.72 28.01 490.43 C 28.02 514.91 52.97 528.04 74.50 528.03 Q 108.70 528.02 142.90 527.99 Q 156.27 527.97 162.36 526.49 Q 177.56 522.80 188.58 510.81 Q 188.93 510.43 189.28 510.81 Q 200.58 523.02 216.11 526.62 Q 222.13 528.01 236.01 528.01 Q 269.88 527.99 303.76 528.00 Q 327.46 528.00 343.36 510.36 Q 343.71 509.97 344.05 510.36 Q 359.62 527.97 383.50 527.98 Q 425.02 528.00 466.55 528.00 A 0.64 0.64 0.0 0 0 467.17 527.53 L 467.63 525.94 A 0.58 0.58 0.0 0 1 468.74 525.91 C 474.91 544.05 490.44 555.50 507.14 563.21 C 531.67 574.52 560.80 580.40 585.12 585.82"/>
    <path stroke="#1a2a50" vector-effect="non-scaling-stroke" d=" M 527.49 400.25 Q 526.79 401.84 524.31 403.81 Q 521.48 406.07 514.02 413.58"/>
    <path stroke="#808080" vector-effect="non-scaling-stroke" d=" M 514.02 413.58 L 514.00 323.55 Q 514.00 323.00 513.45 323.00 L 454.78 323.00 A 0.51 0.51 0.0 0 0 454.27 323.51 Q 454.18 400.90 454.32 477.71 C 454.34 488.08 456.90 495.12 466.33 499.71 Q 466.77 499.92 466.88 499.44 L 469.80 487.37"/>
    <path stroke="#1a2a50" vector-effect="non-scaling-stroke" d=" M 469.80 487.37 Q 469.87 491.78 469.90 496.14 C 470.17 535.73 519.51 551.17 550.02 558.42 C 565.94 562.21 582.98 565.26 598.33 570.89 A 0.94 0.94 0.0 0 1 598.76 572.34 Q 594.55 577.89 589.41 582.42 Q 586.92 584.62 585.12 585.82"/>
    <path stroke="#9aaad0" vector-effect="non-scaling-stroke" d=" M 514.02 413.58 C 493.14 433.24 474.82 458.47 469.80 487.37"/>
    <path stroke="#1a2a50" vector-effect="non-scaling-stroke" d=" M 727.10 353.55 L 727.03 366.51 Q 727.02 367.07 727.57 367.00 L 732.03 366.46"/>
    <path stroke="#1a2a50" vector-effect="non-scaling-stroke" d=" M 812.53 366.14 Q 806.82 374.24 795.42 376.69 Q 774.41 381.22 753.41 385.82 Q 739.78 388.81 727.58 394.18 A 2.53 2.50 86.5 0 0 726.17 395.79 C 724.94 400.04 725.12 404.28 724.92 408.31 Q 723.97 427.66 724.59 447.01 C 725.15 464.47 724.98 480.30 725.01 496.94 C 725.04 509.97 726.00 524.74 726.09 538.69 Q 726.13 546.01 728.06 568.68 C 729.08 580.79 732.42 592.08 734.28 603.74 C 735.58 611.86 730.45 618.62 722.39 618.84 C 712.39 619.10 707.15 610.48 705.50 601.75 C 702.02 583.45 700.55 565.27 699.52 546.58 Q 698.79 533.51 699.03 520.52 A 0.31 0.30 -21.9 0 0 698.51 520.30 Q 681.27 537.07 663.10 552.86 C 659.65 555.85 649.64 564.03 651.18 569.01 Q 652.29 572.60 657.08 579.12"/>
    <path stroke="#1a2a50" vector-effect="non-scaling-stroke" d=" M 660.32 591.71 C 659.85 608.59 650.00 623.26 638.05 635.06 C 618.29 654.58 594.23 670.59 567.05 677.44 C 548.86 682.03 526.76 681.23 522.82 658.03"/>
    <path stroke="#1a2a50" vector-effect="non-scaling-stroke" d=" M 696.31 374.02 C 702.58 373.08 700.00 359.87 699.80 355.75"/>
    <path stroke="#808080" vector-effect="non-scaling-stroke" d=" M 555.06 336.83 L 554.98 347.54 A 0.40 0.40 0.0 0 0 555.56 347.89 L 573.75 338.82 Q 574.29 338.54 574.19 337.94 L 572.93 330.34 Q 572.83 329.68 572.23 329.99 Q 564.12 334.31 555.21 336.62 A 0.22 0.22 0.0 0 0 555.06 336.83"/>
    <path stroke="#808080" vector-effect="non-scaling-stroke" d=" M 845.29 442.61 Q 841.37 450.20 842.08 458.74"/>
    <path stroke="#9aaad0" vector-effect="non-scaling-stroke" d=" M 842.08 458.74 Q 834.11 463.51 824.33 465.83 C 813.10 468.50 809.46 462.14 803.31 454.45 Q 794.01 442.82 780.25 443.86 C 770.18 444.62 762.66 449.58 762.85 460.46 Q 762.86 460.99 762.33 461.05 Q 753.06 462.07 747.56 470.54 Q 737.17 486.53 735.35 502.39"/>
    <path stroke="#808080" vector-effect="non-scaling-stroke" d=" M 735.35 502.39 C 729.51 516.26 730.52 532.14 742.91 542.20 Q 752.02 549.59 763.96 548.97 C 785.33 547.84 804.68 529.88 812.83 510.56 A 2.21 2.21 0.0 0 1 814.72 509.21 Q 828.01 508.33 841.12 505.92 A 0.71 0.71 0.0 0 1 841.96 506.63 C 841.85 518.55 845.50 531.77 859.71 532.23 C 870.79 532.59 875.75 525.02 879.17 515.16 C 887.02 492.54 893.98 466.93 914.46 452.04"/>
    <path stroke="#9aaad0" vector-effect="non-scaling-stroke" d=" M 914.46 452.04 L 909.94 470.33"/>
    <path stroke="#808080" vector-effect="non-scaling-stroke" d=" M 909.94 470.33 Q 906.14 481.34 906.10 490.48 C 906.01 508.53 917.90 522.11 935.42 525.34 C 950.37 528.09 970.05 519.94 982.59 512.09 C 1001.39 500.32 1017.40 485.29 1031.55 468.29 Q 1036.17 462.74 1037.14 460.98 C 1040.63 454.63 1040.13 446.48 1034.67 441.27"/>
    <path stroke="#9aaad0" vector-effect="non-scaling-stroke" d=" M 1034.67 441.27 Q 1036.48 431.86 1029.74 427.32 C 1021.46 421.73 1012.72 426.41 1007.25 433.51 Q 995.38 448.91 983.05 460.28"/>
    <path stroke="#808080" vector-effect="non-scaling-stroke" d=" M 983.05 460.28 C 985.13 451.59 985.31 443.34 980.23 435.70"/>
    <path stroke="#9aaad0" vector-effect="non-scaling-stroke" d=" M 980.23 435.70 Q 980.27 426.36 974.82 420.17 C 958.38 401.50 935.71 416.96 925.13 432.43"/>
    <path stroke="#808080" vector-effect="non-scaling-stroke" d=" M 925.13 432.43 Q 923.46 427.64 920.81 425.20"/>
    <path stroke="#9aaad0" vector-effect="non-scaling-stroke" d=" M 920.81 425.20 Q 920.64 425.08 920.55 424.90 Q 920.48 424.76 920.53 424.53 C 922.48 414.65 916.28 408.86 906.81 408.83 C 891.63 408.77 879.53 424.98 873.90 437.76 A 0.32 0.32 0.0 0 1 873.29 437.68 C 872.89 435.24 872.45 432.69 871.58 430.71 C 866.33 418.68 849.91 420.54 846.75 433.02 Q 845.77 436.86 845.29 442.61"/>
    <path stroke="#1a2a50" vector-effect="non-scaling-stroke" d=" M 920.81 425.20 Q 920.61 425.22 920.44 425.24 A 0.85 0.82 10.4 0 0 919.84 425.64 Q 917.50 429.62 914.70 431.47 C 891.24 447.03 884.00 472.50 875.26 498.00 Q 872.58 505.81 870.19 508.47 C 865.59 513.58 857.20 514.87 851.60 510.31 C 845.66 505.47 845.07 494.51 844.99 486.49 Q 844.98 485.89 844.39 486.00 Q 828.30 489.00 812.00 490.45 Q 811.36 490.51 810.13 491.13 Q 809.68 491.36 809.49 491.83 C 803.15 508.47 789.29 523.04 771.99 528.20 C 752.91 533.91 735.34 522.88 735.35 502.39"/>
    <path stroke="#1a2a50" vector-effect="non-scaling-stroke" d=" M 842.08 458.74 L 845.36 456.71 Q 845.83 456.42 845.81 455.87 L 845.29 442.61"/>
    <path stroke="#1a2a50" vector-effect="non-scaling-stroke" d=" M 980.23 435.70 C 978.31 455.69 961.20 467.63 943.19 471.97 C 941.01 472.49 937.94 473.37 937.22 475.55 C 936.41 477.99 939.18 480.71 941.28 480.99 C 954.76 482.79 973.71 469.12 983.05 460.28"/>
    <path stroke="#1a2a50" vector-effect="non-scaling-stroke" d=" M 1034.67 441.27 Q 1032.32 445.53 1026.79 452.04 C 1006.78 475.58 982.93 496.68 953.28 505.11 Q 939.41 509.06 927.80 503.99 Q 907.81 495.27 909.94 470.33"/>
    <path stroke="#1a2a50" vector-effect="non-scaling-stroke" d=" M 914.46 452.04 Q 918.71 441.80 925.13 432.43"/>
    <path stroke="#808080" vector-effect="non-scaling-stroke" d=" M 817.79 429.40 Q 817.93 429.70 818.26 429.85 Q 818.76 430.07 818.86 429.54 Q 820.44 421.28 824.96 414.22 A 0.18 0.18 0.0 0 0 824.71 413.97 Q 816.91 418.94 808.01 421.48 A 0.46 0.46 0.0 0 0 807.92 422.32 Q 813.07 425.12 817.49 429.00 Q 817.68 429.17 817.79 429.40"/>
    <path stroke="#808080" vector-effect="non-scaling-stroke" d=" M 658.58 209.22 Q 658.25 211.52 657.91 209.22 L 643.37 109.51 Q 643.30 109.00 642.78 109.00 L 584.56 109.00 A 0.61 0.60 -4.8 0 0 583.96 109.70 L 613.55 290.58 A 0.79 0.79 0.0 0 0 614.33 291.25 L 687.14 291.25 Q 687.55 291.25 687.62 290.84 L 702.36 202.75 Q 702.64 201.09 702.91 202.75 L 717.29 290.79 Q 717.36 291.25 717.83 291.25 L 790.75 291.25 A 0.58 0.58 0.0 0 0 791.32 290.76 L 820.97 109.52 Q 821.05 109.00 820.53 109.00 L 762.06 109.00 A 0.52 0.52 0.0 0 0 761.55 109.44 L 746.79 210.71 A 0.13 0.13 0.0 0 1 746.53 210.71 L 732.01 109.47 A 0.55 0.54 -3.6 0 0 731.47 109.00 L 673.46 109.00 Q 672.98 109.00 672.91 109.47 L 658.58 209.22"/>
    <path stroke="#808080" vector-effect="non-scaling-stroke" d=" M 337.00 122.03 L 337.00 112.63 A 0.88 0.88 0.0 0 0 336.12 111.75 L 278.25 111.75 Q 277.75 111.75 277.75 112.25 L 277.75 293.50 A 0.50 0.50 0.0 0 0 278.25 294.00 L 336.50 294.00 Q 337.00 294.00 337.00 293.50 L 337.00 157.75 Q 337.00 157.25 337.50 157.25 L 350.50 157.25 Q 351.00 157.25 351.00 157.75 L 351.00 293.50 Q 351.00 294.00 351.50 294.00 L 410.00 294.00 Q 410.55 294.00 410.55 293.45 Q 410.37 186.16 410.66 136.81 C 410.70 129.80 408.79 124.70 403.32 120.06 C 392.54 110.91 381.49 111.24 367.87 112.30 Q 351.62 113.55 337.64 122.38 Q 337.00 122.79 337.00 122.03"/>
    <path stroke="#808080" vector-effect="non-scaling-stroke" d=" M 492.43 225.74 L 565.48 225.76 A 0.51 0.51 0.0 0 0 565.99 225.25 Q 566.03 183.05 565.97 140.82 C 565.96 132.12 565.05 125.79 558.91 120.36 Q 549.12 111.70 535.25 111.69 Q 502.55 111.69 469.86 111.78 Q 457.75 111.81 453.38 112.96 C 445.81 114.96 437.06 120.40 434.05 128.14 Q 433.00 130.85 433.00 136.00 Q 433.00 205.01 433.00 274.02 C 433.00 282.76 446.04 290.36 453.01 292.44 Q 458.10 293.95 469.67 293.98 Q 499.36 294.04 529.06 293.98 Q 539.74 293.96 544.71 292.65 C 555.88 289.71 565.95 281.67 566.01 269.24 Q 566.08 253.40 565.96 237.48 Q 565.96 237.00 565.48 237.00 L 506.75 237.00 A 0.50 0.50 0.0 0 0 506.25 237.50 L 506.25 247.50 Q 506.25 248.00 505.75 248.00 L 492.74 248.00 Q 491.98 248.00 491.98 247.24 L 492.04 226.13 Q 492.04 225.74 492.43 225.74"/>
    <path stroke="#808080" vector-effect="non-scaling-stroke" d=" M 437.75 453.07 A 0.48 0.47 -80.0 0 0 438.21 452.74 Q 438.35 452.30 438.13 451.96 A 0.78 0.76 28.2 0 1 437.99 451.52 L 438.01 306.99 Q 438.01 306.46 437.53 306.24 Q 431.63 303.51 426.67 299.31 A 0.47 0.47 0.0 0 0 425.89 299.69 C 426.53 315.56 426.29 331.60 426.27 347.29 Q 426.19 399.80 426.55 452.36 Q 426.55 452.96 427.15 452.97 L 437.75 453.07"/>
    <path stroke="#808080" vector-effect="non-scaling-stroke" d=" M 254.00 458.63 L 254.00 437.63 Q 254.00 437.00 254.63 437.00 L 326.98 437.00 Q 327.45 437.00 327.45 436.53 Q 327.57 391.86 327.66 347.19 Q 327.68 339.47 323.19 334.31 Q 316.89 327.07 307.94 324.44 Q 303.05 323.00 290.42 323.00 Q 258.83 322.98 227.26 323.02 Q 218.96 323.03 214.54 324.39 C 203.57 327.76 194.53 335.16 194.52 347.75 Q 194.43 450.41 194.53 478.94 Q 194.54 481.33 194.95 485.36 C 195.92 494.74 206.76 501.21 214.68 503.64 Q 219.01 504.96 226.61 504.98 Q 260.99 505.04 295.37 504.98 C 306.45 504.96 321.08 500.83 325.95 489.48 Q 327.29 486.38 327.34 479.83 Q 327.46 464.08 327.48 448.49 A 0.49 0.49 0.0 0 0 326.99 448.00 L 268.50 448.00 Q 268.00 448.00 268.00 448.50 L 268.00 458.77 Q 268.00 459.29 267.48 459.28 L 254.63 459.26 Q 254.00 459.26 254.00 458.63"/>
    <path stroke="#808080" vector-effect="non-scaling-stroke" d=" M 356.19 496.81 C 364.55 503.53 370.81 504.96 382.25 504.98 Q 413.85 505.04 445.50 504.98 Q 446.00 504.98 446.00 504.49 L 446.00 459.75 A 0.50 0.50 0.0 0 0 445.50 459.25 L 408.50 459.25 A 0.50 0.50 0.0 0 1 408.00 458.75 L 408.00 323.50 Q 408.00 323.00 407.50 323.00 L 349.02 323.00 A 0.51 0.51 0.0 0 0 348.51 323.51 Q 348.46 398.52 348.54 473.59 C 348.55 484.75 348.05 490.27 356.19 496.81"/>
    <path stroke="#808080" vector-effect="non-scaling-stroke" d=" M 117.79 462.00 L 104.50 462.00 Q 104.00 462.00 104.00 461.50 L 104.00 371.62 Q 104.00 371.00 104.62 371.00 L 117.63 371.00 Q 118.27 371.00 118.27 371.63 L 118.25 401.50 A 0.50 0.50 0.0 0 0 118.75 402.00 L 177.49 402.00 Q 177.98 402.00 177.98 401.51 Q 178.05 376.25 177.97 350.99 C 177.91 330.83 158.60 325.11 142.00 325.04 Q 91.99 324.83 74.95 325.10 C 64.95 325.25 51.95 330.53 46.90 339.87 Q 45.01 343.37 45.01 345.81 Q 44.99 415.52 45.01 485.22 C 45.01 496.02 55.28 503.09 64.41 505.86 Q 69.17 507.31 78.25 507.39 Q 106.95 507.64 135.65 507.46 Q 151.65 507.35 154.93 506.70 C 164.47 504.79 177.97 496.46 177.99 485.27 Q 178.03 452.30 177.99 419.51 Q 177.99 419.00 177.48 419.00 L 119.00 419.00 A 0.76 0.76 0.0 0 0 118.24 419.76 L 118.27 461.52 Q 118.27 462.00 117.79 462.00"/>
    <path stroke="#808080" vector-effect="non-scaling-stroke" d=" M 506.26 155.37 A 0.37 0.37 0.0 0 0 505.89 155.00 L 492.39 155.00 A 0.37 0.37 0.0 0 0 492.02 155.37 L 492.02 177.15 A 0.37 0.37 0.0 0 0 492.39 177.52 L 505.89 177.52 A 0.37 0.37 0.0 0 0 506.26 177.15 L 506.26 155.37"/>
    <path stroke="#808080" vector-effect="non-scaling-stroke" d=" M 268.00 369.01 A 0.30 0.30 0.0 0 0 267.70 368.71 L 254.30 368.71 A 0.30 0.30 0.0 0 0 254.00 369.01 L 254.00 390.71 A 0.30 0.30 0.0 0 0 254.30 391.01 L 267.70 391.01 A 0.30 0.30 0.0 0 0 268.00 390.71 L 268.00 369.01"/>
    <path stroke="#9aaad0" vector-effect="non-scaling-stroke" d=" M 653.35 407.66 C 663.43 403.23 708.59 379.93 710.00 403.76 Q 710.57 413.34 709.51 437.57 C 708.36 463.87 708.97 490.43 709.02 516.76 C 709.05 532.23 710.21 547.67 711.15 563.31 Q 712.10 579.25 715.34 597.18 Q 716.36 602.86 718.89 607.39 Q 719.20 607.94 719.83 607.95 L 723.39 608.02 Q 723.97 608.03 723.98 607.46 Q 724.04 604.37 723.80 603.49 Q 719.29 587.01 718.00 573.50 C 716.04 552.84 715.15 537.60 714.99 519.75 C 714.70 489.55 713.85 453.52 714.03 412.12 C 714.05 406.70 714.82 401.40 715.39 395.99 Q 716.27 387.55 723.99 384.15 Q 734.29 379.61 745.25 376.97 Q 766.99 371.75 788.91 367.29 Q 795.15 366.02 801.43 363.35 A 1.18 1.18 0.0 0 0 801.30 361.13 Q 797.35 359.96 792.61 361.15 C 770.93 366.59 749.56 373.00 727.77 378.06 Q 722.37 379.31 719.29 375.91 C 711.78 367.59 720.88 354.49 714.78 346.80 A 1.42 1.41 42.4 0 0 712.49 346.90 C 709.96 350.72 709.80 353.88 710.53 358.78 C 712.18 369.90 710.64 380.13 699.07 385.15 C 681.00 392.98 661.03 394.53 643.29 403.30 C 640.98 404.45 635.34 408.65 638.63 411.15 A 1.12 1.10 60.0 0 0 639.46 411.38 Q 646.95 410.47 653.35 407.66"/>
    <path stroke="#9aaad0" vector-effect="non-scaling-stroke" d=" M 697.59 496.96 C 680.92 514.61 668.14 527.80 646.26 548.46 C 636.12 558.02 627.56 562.45 613.68 559.08 Q 580.02 550.92 547.05 540.34 C 529.88 534.82 511.27 527.59 497.72 515.77 C 486.72 506.18 485.49 493.70 489.12 479.67 C 494.83 457.55 512.28 436.92 528.78 422.03 C 554.29 399.01 582.58 379.88 614.77 369.82 C 626.00 366.31 645.95 361.54 652.90 375.22 C 654.67 378.71 654.21 383.05 653.88 386.96 Q 653.83 387.55 654.40 387.39 L 658.75 386.17 Q 659.82 385.87 659.92 384.76 C 661.79 362.15 640.16 358.38 623.40 362.35 C 580.43 372.55 540.95 399.13 511.16 431.66 C 491.21 453.44 462.94 497.01 493.94 523.06 C 509.07 535.78 529.84 542.79 549.51 547.46 Q 569.92 552.31 590.31 557.22 C 595.21 558.40 602.44 560.55 605.47 563.07 C 617.06 572.71 601.88 585.93 593.93 592.15 Q 577.33 605.14 561.36 618.88 C 551.51 627.35 539.33 638.60 535.25 649.55 C 532.27 657.53 533.79 665.95 543.03 668.26 C 551.39 670.35 560.99 668.20 570.09 665.50 C 593.03 658.69 613.60 644.36 630.69 627.45 C 638.93 619.28 655.56 597.87 648.40 585.56 Q 645.70 580.92 643.02 576.27 C 636.73 565.35 643.28 556.39 651.27 549.27 C 666.64 535.59 681.69 522.42 696.52 507.25 C 699.19 504.52 698.94 500.57 698.21 497.13 Q 698.07 496.45 697.59 496.96"/>
    <path stroke="#9aaad0" vector-effect="non-scaling-stroke" d=" M 501.77 504.39 Q 501.88 504.06 502.28 504.99"/>
    <path stroke="#1a2a50" vector-effect="non-scaling-stroke" d=" M 502.28 504.99 Q 502.24 505.44 502.78 505.97 Q 508.72 511.75 515.97 515.73 Q 529.50 523.14 543.80 528.31"/>
    <path stroke="#9aaad0" vector-effect="non-scaling-stroke" d=" M 543.80 528.31 Q 577.78 539.50 612.22 548.13 C 624.95 551.32 629.85 549.30 638.90 540.85 Q 668.14 513.54 695.08 484.09"/>
    <path stroke="#1a2a50" vector-effect="non-scaling-stroke" d=" M 695.08 484.09 C 698.92 481.63 698.34 478.79 698.43 474.73 Q 699.13 439.53 699.23 404.26 Q 699.23 403.72 698.69 403.74 C 685.23 404.15 671.72 410.83 659.19 416.63 C 655.23 418.47 654.12 420.48 651.66 423.92 C 644.25 434.26 621.64 462.19 609.07 441.64"/>
    <path stroke="#9aaad0" vector-effect="non-scaling-stroke" d=" M 609.07 441.64 C 607.21 429.44 618.60 419.53 626.64 412.06 A 1.11 1.08 68.0 0 0 626.99 411.21 C 626.67 403.91 629.73 400.88 634.48 396.02"/>
    <path stroke="#1a2a50" vector-effect="non-scaling-stroke" d=" M 634.48 396.02 C 639.96 393.88 644.38 387.45 643.71 381.38 C 642.68 371.88 617.99 379.53 612.91 381.38 C 584.62 391.64 557.88 409.51 535.71 429.69 Q 518.04 445.79 506.01 466.42 C 500.53 475.82 492.87 495.80 501.77 504.39"/>
    <path stroke="#808080" vector-effect="non-scaling-stroke" d=" M 634.48 396.02 Q 629.87 395.96 625.79 397.02 C 591.94 405.80 559.00 428.23 534.25 452.43 A 0.33 0.33 0.0 0 0 534.48 453.00 L 568.00 453.00 A 0.50 0.50 0.0 0 1 568.50 453.50 L 568.50 527.50 Q 568.50 528.03 567.97 528.04 L 543.80 528.31"/>
    <path stroke="#808080" vector-effect="non-scaling-stroke" d=" M 502.28 504.99 L 551.50 504.99 Q 552.00 504.99 552.00 504.48 L 552.00 460.00 Q 552.00 459.50 551.50 459.50 L 528.18 459.41 Q 527.72 459.41 527.40 459.75 C 516.31 471.32 505.12 487.08 502.45 503.24 Q 502.38 503.70 501.77 504.39"/>
    <path stroke="#808080" vector-effect="non-scaling-stroke" d=" M 609.07 441.64 C 603.36 449.33 603.49 459.08 611.41 464.99 C 628.35 477.64 649.42 449.43 657.79 438.13 Q 659.01 436.47 660.85 435.66 C 672.05 430.67 682.71 425.57 694.89 422.93 A 0.99 0.99 0.0 0 1 696.09 423.91 C 695.74 443.82 694.71 463.90 695.08 484.09"/>
    <path stroke="#9aaad0" vector-effect="non-scaling-stroke" d=" M 638.84 422.99 Q 639.02 422.95 639.00 422.72 Q 638.98 422.47 638.74 422.40 L 633.54 420.89 Q 633.12 420.77 632.78 421.05 Q 624.96 427.73 619.34 436.30 A 1.27 1.27 0.0 0 0 620.53 438.26 C 626.50 437.64 634.45 428.36 638.57 423.16 Q 638.67 423.03 638.84 422.99"/>
    <path stroke="#9aaad0" vector-effect="non-scaling-stroke" d=" M 541.07 657.68 C 544.02 666.45 556.53 664.30 562.96 662.62 C 591.23 655.22 628.50 634.65 639.95 605.91 C 643.46 597.09 644.77 581.02 633.25 577.65 C 627.00 575.82 618.25 578.34 612.71 581.93 C 598.47 591.13 534.29 637.56 541.07 657.68"/>
    <path stroke="#808080" vector-effect="non-scaling-stroke" d=" M 596.52 514.95 L 618.59 520.95 Q 619.09 521.09 619.48 520.73 Q 644.61 497.74 666.32 474.07 Q 667.39 472.90 667.40 471.17 Q 667.41 470.34 666.85 470.95 C 659.13 479.32 651.36 486.70 640.91 491.40 C 626.02 498.09 610.45 497.62 596.67 488.70 A 0.44 0.43 16.5 0 0 596.00 489.06 L 596.00 514.26 A 0.72 0.72 0.0 0 0 596.52 514.95"/>
    <path stroke="#9aaad0" vector-effect="non-scaling-stroke" d=" M 858.94 502.60 A 1.31 1.31 0.0 0 0 860.27 502.75 Q 862.86 501.57 863.84 498.65 C 873.23 470.48 882.51 439.22 909.21 422.38 A 1.68 1.68 0.0 0 0 909.40 419.68 C 906.53 417.26 899.09 421.68 896.78 423.72 C 888.33 431.17 883.62 441.44 877.99 451.00 C 876.21 454.03 873.59 457.06 869.80 457.01 C 857.28 456.85 867.22 435.37 860.13 433.05 C 856.95 432.00 855.80 439.01 855.82 441.50 Q 855.98 465.08 855.75 488.65 C 855.71 492.35 855.90 500.30 858.94 502.60"/>
    <path stroke="#9aaad0" vector-effect="non-scaling-stroke" d=" M 774.09 460.56 C 782.25 464.73 793.01 465.01 795.58 475.89 C 799.10 490.80 778.62 513.06 764.19 514.04 Q 760.02 514.32 757.11 512.56 C 744.96 505.19 757.58 485.49 762.36 477.39 Q 763.48 475.48 763.74 473.78 A 1.65 1.65 0.0 0 0 761.75 471.92 C 758.52 472.65 757.91 474.05 755.86 477.06 C 749.74 486.09 740.87 505.24 749.78 514.21 C 756.10 520.58 766.90 520.13 774.57 516.09 Q 792.97 506.41 800.11 486.82 C 802.67 479.82 809.92 480.03 816.77 479.49 Q 830.79 478.37 844.43 474.95 A 0.66 0.65 -5.6 0 0 844.92 474.36 L 845.22 469.71 Q 845.26 469.07 844.70 469.38 C 835.89 474.14 823.37 478.59 813.97 476.36 C 805.44 474.33 801.45 468.96 796.12 462.31 C 790.83 455.73 785.22 452.17 776.37 455.28 C 774.88 455.80 773.20 457.32 773.11 458.85 A 1.80 1.79 -75.0 0 0 774.09 460.56"/>
    <path stroke="#1a2a50" vector-effect="non-scaling-stroke" d=" M 780.59 490.47 C 782.35 488.37 787.63 478.84 784.32 476.39 Q 780.70 473.70 774.47 472.56 Q 773.92 472.46 773.95 473.02 Q 774.25 477.83 773.23 479.70 C 769.22 487.03 764.25 494.18 762.39 502.49 Q 762.08 503.84 763.44 503.55 C 771.68 501.81 775.55 496.53 780.59 490.47"/>
    <path stroke="#9aaad0" vector-effect="non-scaling-stroke" d=" M 1009.98 446.77 C 994.87 465.26 976.20 483.91 951.79 490.59 Q 945.69 492.25 941.61 491.82 C 927.72 490.34 920.33 473.50 933.08 464.61 C 936.62 462.15 942.02 461.73 945.71 460.44 C 955.84 456.87 967.56 448.63 969.41 437.43 C 971.10 427.23 960.87 419.16 951.28 423.35 C 935.21 430.37 924.61 450.65 921.31 466.93 C 919.15 477.65 920.05 487.53 929.89 493.17 C 942.25 500.25 961.03 492.58 972.68 485.66 C 992.09 474.12 1008.91 457.61 1023.18 439.92 Q 1023.83 439.11 1024.27 437.80 Q 1024.41 437.39 1024.18 437.02 Q 1022.15 433.67 1019.27 436.27 Q 1016.55 438.72 1009.98 446.77"/>
    <path stroke="#9aaad0" vector-effect="non-scaling-stroke" d=" M 940.9072 451.6113 A 13.84 8.02 131.9 0 0 956.1194 446.6660 A 13.84 8.02 131.9 0 0 959.3928 431.0087 A 13.84 8.02 131.9 0 0 944.1806 435.9540 A 13.84 8.02 131.9 0 0 940.9072 451.6113"/>
    <path stroke="#9aaad0" vector-effect="non-scaling-stroke" d=" M 571.27 649.24 Q 590.87 641.97 607.56 629.06 Q 619.89 619.54 628.23 606.71"/>
    <path stroke="#1a2a50" vector-effect="non-scaling-stroke" d=" M 628.23 606.71 Q 631.86 600.22 632.00 591.97 C 632.16 582.17 617.08 591.40 614.01 593.68 C 595.83 607.18 578.73 620.33 562.74 636.48 Q 555.35 643.95 551.00 653.20 A 0.57 0.57 0.0 0 0 551.58 654.01 Q 562.44 652.72 571.27 649.24"/>
    <path stroke="#808080" vector-effect="non-scaling-stroke" d=" M 628.23 606.71 Q 621.31 608.60 613.02 614.78 Q 587.56 633.74 571.27 649.24"/>
  </g>
  <path fill="#000000" d="M 245.951 163.8 C 245.762 164.23 245.332 164.711 244.662 165.243 C 243.898 165.854 242.507 167.173 240.492 169.203 L 240.484 132.715 C 240.484 132.566 240.41 132.492 240.261 132.492 L 216.483 132.492 C 216.369 132.492 216.276 132.584 216.276 132.699 C 216.252 153.608 216.259 174.44 216.297 195.193 C 216.305 199.396 217.342 202.249 221.164 204.109 C 221.283 204.166 221.357 204.13 221.387 204 L 222.57 199.108 C 222.589 200.3 222.603 201.484 222.611 202.663 C 222.72 218.708 242.717 224.965 255.082 227.904 C 261.534 229.44 268.44 230.676 274.661 232.957 C 274.902 233.045 274.99 233.34 274.836 233.545 C 273.698 235.045 272.435 236.406 271.046 237.63 C 270.373 238.225 269.794 238.684 269.308 239.008 C 259.451 236.812 247.645 234.429 237.704 229.845 C 230.935 226.72 224.641 222.08 222.141 214.728 C 222.084 214.556 221.862 214.511 221.742 214.646 C 221.718 214.673 221.7 214.705 221.691 214.74 L 221.505 215.384 C 221.473 215.497 221.37 215.575 221.253 215.575 C 210.032 215.575 198.813 215.572 187.595 215.567 C 181.142 215.564 175.813 213.184 171.606 208.426 C 171.514 208.32 171.421 208.32 171.327 208.426 C 167.031 213.192 161.681 215.575 155.277 215.575 C 146.123 215.572 136.971 215.574 127.82 215.579 C 124.069 215.579 121.381 215.391 119.754 215.016 C 115.559 214.043 111.934 211.907 108.881 208.608 C 108.786 208.506 108.691 208.506 108.597 208.608 C 105.619 211.847 102.077 213.966 97.971 214.963 C 96.325 215.363 93.696 215.566 90.084 215.571 C 80.843 215.579 71.603 215.584 62.362 215.587 C 53.637 215.591 43.525 210.27 43.521 200.348 C 43.516 180.433 43.514 160.516 43.517 140.598 C 43.517 133.586 50.63 128.22 56.871 126.725 C 58.484 126.339 61.17 126.138 64.928 126.125 C 79.556 126.071 88.966 126.07 93.16 126.121 C 99.312 126.197 104.454 128.535 108.585 133.136 C 108.677 133.239 108.768 133.239 108.86 133.136 C 116.812 124.358 127.143 126.093 137.741 126.109 C 137.879 126.112 137.948 126.044 137.948 125.906 L 137.948 39.885 C 137.948 39.75 138.015 39.683 138.15 39.683 L 172.842 39.683 C 172.99 39.683 173.11 39.802 173.11 39.95 L 173.11 41.247 C 173.11 41.384 173.241 41.483 173.373 41.445 C 183.805 38.613 194.979 37.956 202.468 47.042 C 202.52 47.102 202.611 47.102 202.659 47.042 C 205.444 43.587 208.901 41.328 213.03 40.266 C 214.494 39.89 216.624 39.7 219.417 39.695 C 227.907 39.678 236.399 39.674 244.893 39.683 C 251.698 39.691 255.378 39.703 260.464 42.909 C 260.574 42.979 260.72 42.904 260.726 42.774 C 260.727 42.76 260.726 42.747 260.724 42.734 L 260.266 40.072 C 260.22 39.812 260.329 39.683 260.594 39.683 L 295.327 39.683 C 295.483 39.683 295.573 39.76 295.594 39.914 L 297.75 54.674 C 297.802 55.041 297.854 55.041 297.908 54.674 L 300.028 39.978 C 300.05 39.809 300.196 39.683 300.368 39.683 L 333.314 39.683 C 333.561 39.682 333.77 39.864 333.804 40.108 L 335.871 54.577 C 335.871 54.661 335.962 54.714 336.035 54.671 C 336.069 54.652 336.09 54.616 336.09 54.577 L 338.262 39.857 C 338.278 39.74 338.346 39.683 338.465 39.683 L 373.307 39.683 C 373.51 39.683 373.595 39.783 373.562 39.982 L 359.24 127.479 C 359.224 127.565 359.149 127.628 359.061 127.629 L 319.688 127.629 C 319.43 127.628 319.211 127.441 319.169 127.187 L 316.948 113.448 C 316.948 113.392 316.888 113.357 316.839 113.385 C 316.816 113.398 316.802 113.422 316.802 113.448 L 314.513 127.26 C 314.477 127.473 314.293 127.629 314.079 127.629 L 274.815 127.629 C 274.667 127.629 274.58 127.555 274.556 127.406 L 267.492 84.345 C 267.476 84.258 267.43 84.235 267.354 84.276 C 267.276 84.316 267.237 84.388 267.237 84.49 C 267.234 94.042 267.232 103.591 267.232 113.14 C 267.232 121.039 259.573 126.287 252.444 127.418 C 250.539 127.722 248.269 127.645 246.21 127.625 C 246.068 127.622 245.951 127.737 245.951 127.88 L 245.951 163.8 Z M 299.08 86.379 C 298.99 87 298.9 87 298.808 86.379 L 292.915 45.968 C 292.896 45.831 292.817 45.762 292.676 45.762 L 269.081 45.762 C 268.928 45.763 268.812 45.897 268.837 46.045 L 280.83 119.353 C 280.854 119.509 280.988 119.624 281.146 119.624 L 310.654 119.624 C 310.765 119.624 310.83 119.569 310.849 119.458 L 316.823 83.757 C 316.899 83.308 316.973 83.308 317.046 83.757 L 322.874 119.438 C 322.893 119.562 322.966 119.624 323.092 119.624 L 352.646 119.624 C 352.761 119.624 352.859 119.54 352.877 119.426 L 364.893 45.972 C 364.915 45.832 364.856 45.762 364.715 45.762 L 341.018 45.762 C 340.915 45.763 340.827 45.838 340.811 45.94 L 334.829 86.983 C 334.829 87.023 334.786 87.049 334.75 87.029 C 334.734 87.019 334.724 87.002 334.724 86.983 L 328.839 45.952 C 328.825 45.844 328.732 45.763 328.621 45.762 L 305.11 45.762 C 304.98 45.762 304.906 45.825 304.887 45.952 L 299.08 86.379 Z M 168.749 51.043 L 168.749 47.233 C 168.749 47.036 168.589 46.876 168.392 46.876 L 144.939 46.876 C 144.804 46.876 144.736 46.944 144.736 47.079 L 144.736 120.536 C 144.736 120.648 144.827 120.739 144.939 120.739 L 168.546 120.739 C 168.681 120.739 168.749 120.671 168.749 120.536 L 168.749 65.519 C 168.749 65.384 168.817 65.317 168.952 65.317 L 174.22 65.317 C 174.355 65.317 174.423 65.384 174.423 65.519 L 174.423 120.536 C 174.423 120.671 174.491 120.739 174.626 120.739 L 198.335 120.739 C 198.483 120.739 198.557 120.665 198.557 120.516 C 198.509 91.527 198.524 70.366 198.602 57.033 C 198.618 54.192 197.844 52.125 195.627 50.244 C 191.258 46.536 186.78 46.67 181.26 47.099 C 176.87 47.437 172.786 48.799 169.008 51.184 C 168.835 51.295 168.749 51.248 168.749 51.043 Z M 231.742 93.074 L 261.348 93.082 C 261.462 93.082 261.554 92.99 261.554 92.876 C 261.565 81.474 261.563 70.068 261.546 58.658 C 261.542 55.132 261.174 52.566 258.685 50.366 C 256.04 48.026 252.844 46.855 249.096 46.852 C 240.261 46.852 231.427 46.864 222.595 46.888 C 219.323 46.897 217.096 47.056 215.916 47.367 C 212.848 48.177 209.301 50.382 208.082 53.519 C 207.798 54.251 207.656 55.313 207.656 56.704 C 207.656 75.35 207.656 93.996 207.656 112.641 C 207.656 116.184 212.941 119.264 215.766 120.107 C 217.141 120.515 219.392 120.723 222.518 120.731 C 230.539 120.747 238.563 120.747 246.587 120.731 C 249.473 120.726 251.587 120.546 252.93 120.192 C 257.457 119 261.538 115.742 261.563 110.704 C 261.582 106.424 261.575 102.134 261.542 97.832 C 261.542 97.703 261.477 97.638 261.348 97.638 L 237.546 97.638 C 237.434 97.638 237.343 97.729 237.343 97.84 L 237.343 101.893 C 237.343 102.028 237.275 102.096 237.14 102.096 L 231.868 102.096 C 231.662 102.096 231.56 101.993 231.56 101.788 L 231.584 93.232 C 231.584 93.127 231.637 93.074 231.742 93.074 Z M 209.581 185.207 C 209.665 185.209 209.741 185.155 209.768 185.073 C 209.805 184.955 209.795 184.849 209.735 184.757 C 209.698 184.705 209.678 184.642 209.678 184.579 L 209.686 126.003 C 209.686 125.86 209.622 125.759 209.492 125.7 C 207.898 124.962 206.431 124.026 205.091 122.891 C 204.98 122.794 204.807 122.852 204.778 122.996 C 204.774 123.012 204.774 123.029 204.774 123.045 C 205.034 129.477 204.937 135.977 204.928 142.336 C 204.907 156.524 204.945 170.718 205.042 184.919 C 205.042 185.081 205.123 185.164 205.285 185.167 L 209.581 185.207 Z M 135.111 187.46 L 135.111 178.95 C 135.111 178.779 135.196 178.694 135.366 178.694 L 164.688 178.694 C 164.815 178.694 164.879 178.631 164.879 178.504 C 164.911 166.434 164.939 154.365 164.964 142.296 C 164.969 140.21 164.365 138.47 163.152 137.076 C 161.45 135.12 159.39 133.786 156.971 133.076 C 155.65 132.687 153.283 132.492 149.871 132.492 C 141.336 132.487 132.803 132.489 124.273 132.5 C 122.031 132.503 120.312 132.688 119.118 133.055 C 114.672 134.421 111.008 137.42 111.004 142.523 C 110.98 170.26 110.981 187.983 111.008 195.692 C 111.011 196.337 111.068 197.205 111.179 198.294 C 111.572 202.095 115.965 204.717 119.175 205.702 C 120.345 206.059 121.956 206.24 124.01 206.245 C 133.299 206.261 142.588 206.261 151.877 206.245 C 156.368 206.237 162.297 204.563 164.271 199.963 C 164.633 199.126 164.821 197.822 164.834 196.052 C 164.866 191.797 164.885 187.563 164.891 183.351 C 164.891 183.241 164.802 183.152 164.692 183.152 L 140.987 183.152 C 140.852 183.152 140.785 183.22 140.785 183.355 L 140.785 187.517 C 140.785 187.658 140.714 187.727 140.574 187.724 L 135.366 187.716 C 135.196 187.716 135.111 187.631 135.111 187.46 Z M 176.526 202.934 C 179.914 205.658 182.452 206.237 187.088 206.245 C 195.626 206.261 204.171 206.261 212.722 206.245 C 212.857 206.245 212.925 206.179 212.925 206.047 L 212.925 187.914 C 212.925 187.803 212.834 187.712 212.722 187.712 L 197.727 187.712 C 197.615 187.712 197.524 187.621 197.524 187.509 L 197.524 132.695 C 197.524 132.56 197.456 132.492 197.321 132.492 L 173.62 132.492 C 173.506 132.492 173.414 132.584 173.414 132.699 C 173.4 152.966 173.404 173.24 173.426 193.523 C 173.43 198.046 173.227 200.284 176.526 202.934 Z M 79.907 188.826 L 74.521 188.826 C 74.386 188.826 74.318 188.759 74.318 188.624 L 74.318 152.197 C 74.318 152.029 74.402 151.946 74.57 151.946 L 79.842 151.946 C 80.015 151.946 80.102 152.031 80.102 152.201 L 80.094 164.307 C 80.094 164.419 80.184 164.509 80.296 164.509 L 104.102 164.509 C 104.235 164.509 104.301 164.443 104.301 164.311 C 104.32 157.486 104.318 150.661 104.297 143.836 C 104.273 135.665 96.447 133.347 89.719 133.319 C 76.207 133.262 67.149 133.27 62.545 133.343 C 58.492 133.404 53.223 135.544 51.177 139.329 C 50.666 140.275 50.411 141.077 50.411 141.737 C 50.405 160.571 50.405 179.405 50.411 198.237 C 50.411 202.614 54.573 205.479 58.273 206.602 C 59.559 206.994 61.429 207.201 63.882 207.222 C 71.637 207.29 79.391 207.299 87.145 207.25 C 91.469 207.221 94.073 207.118 94.959 206.942 C 98.826 206.168 104.297 202.792 104.305 198.257 C 104.316 189.349 104.316 180.465 104.305 171.606 C 104.305 171.468 104.236 171.399 104.098 171.399 L 80.397 171.399 C 80.227 171.399 80.089 171.537 80.089 171.707 L 80.102 188.632 C 80.102 188.761 80.037 188.826 79.907 188.826 Z" style=""/>
  <path fill="#ffffff" d="M 299.08 86.379 L 304.887 45.952 C 304.906 45.825 304.98 45.762 305.11 45.762 L 328.621 45.762 C 328.732 45.763 328.825 45.844 328.839 45.952 L 334.724 86.983 C 334.724 87.023 334.768 87.049 334.803 87.029 C 334.819 87.019 334.829 87.002 334.829 86.983 L 340.811 45.94 C 340.827 45.838 340.915 45.763 341.018 45.762 L 364.715 45.762 C 364.856 45.762 364.915 45.832 364.893 45.972 L 352.877 119.426 C 352.859 119.54 352.761 119.624 352.646 119.624 L 323.092 119.624 C 322.966 119.624 322.893 119.562 322.874 119.438 L 317.046 83.757 C 316.973 83.308 316.899 83.308 316.823 83.757 L 310.849 119.458 C 310.83 119.569 310.765 119.624 310.654 119.624 L 281.146 119.624 C 280.988 119.624 280.854 119.509 280.83 119.353 L 268.837 46.045 C 268.812 45.897 268.928 45.763 269.081 45.762 L 292.676 45.762 C 292.817 45.762 292.896 45.831 292.915 45.968 L 298.808 86.379 C 298.9 87 298.99 87 299.08 86.379 Z" style=""/>
  <path fill="#ffffff" d="M 169.008 51.184 C 172.786 48.799 176.87 47.437 181.26 47.099 C 186.78 46.67 191.258 46.536 195.627 50.244 C 197.844 52.125 198.618 54.192 198.602 57.033 C 198.524 70.366 198.509 91.527 198.557 120.516 C 198.557 120.665 198.483 120.739 198.335 120.739 L 174.626 120.739 C 174.491 120.739 174.423 120.671 174.423 120.536 L 174.423 65.519 C 174.423 65.384 174.355 65.317 174.22 65.317 L 168.952 65.317 C 168.817 65.317 168.749 65.384 168.749 65.519 L 168.749 120.536 C 168.749 120.671 168.681 120.739 168.546 120.739 L 144.939 120.739 C 144.827 120.739 144.736 120.648 144.736 120.536 L 144.736 47.079 C 144.736 46.944 144.804 46.876 144.939 46.876 L 168.392 46.876 C 168.589 46.876 168.749 47.036 168.749 47.233 L 168.749 51.043 C 168.749 51.248 168.835 51.295 169.008 51.184 Z" style=""/>
  <path fill="#ffffff" d="M 231.584 93.232 L 231.56 101.788 C 231.56 101.993 231.662 102.096 231.868 102.096 L 237.14 102.096 C 237.275 102.096 237.343 102.028 237.343 101.893 L 237.343 97.84 C 237.343 97.729 237.434 97.638 237.546 97.638 L 261.348 97.638 C 261.477 97.638 261.542 97.703 261.542 97.832 C 261.575 102.134 261.582 106.424 261.563 110.704 C 261.538 115.742 257.457 119 252.93 120.192 C 251.587 120.546 249.473 120.726 246.587 120.731 C 238.563 120.747 230.539 120.747 222.518 120.731 C 219.392 120.723 217.141 120.515 215.766 120.107 C 212.941 119.264 207.656 116.184 207.656 112.641 C 207.656 93.996 207.656 75.35 207.656 56.704 C 207.656 55.313 207.798 54.251 208.082 53.519 C 209.301 50.382 212.848 48.177 215.916 47.367 C 217.096 47.056 219.323 46.897 222.595 46.888 C 231.427 46.864 240.261 46.852 249.096 46.852 C 252.844 46.855 256.04 48.026 258.685 50.366 C 261.174 52.566 261.542 55.132 261.546 58.658 C 261.563 70.068 261.565 81.474 261.554 92.876 C 261.554 92.99 261.462 93.082 261.348 93.082 L 231.742 93.074 C 231.637 93.074 231.584 93.127 231.584 93.232 Z M 237.347 64.555 C 237.347 64.472 237.28 64.405 237.197 64.405 L 231.726 64.405 C 231.643 64.405 231.576 64.472 231.576 64.555 L 231.576 73.382 C 231.576 73.464 231.643 73.532 231.726 73.532 L 237.197 73.532 C 237.28 73.532 237.347 73.464 237.347 73.382 L 237.347 64.555 Z" style=""/>
  <rect fill="#000000" x="231.576" y="64.405" width="5.771" height="9.127" rx="0.37" style=""/>
  <path fill="#ffffff" d="M 209.581 185.207 L 205.285 185.167 C 205.123 185.164 205.042 185.081 205.042 184.919 C 204.945 170.718 204.907 156.524 204.928 142.336 C 204.937 135.977 205.034 129.477 204.774 123.045 C 204.766 122.899 204.919 122.798 205.05 122.863 C 205.065 122.871 205.078 122.88 205.091 122.891 C 206.431 124.026 207.898 124.962 209.492 125.7 C 209.622 125.759 209.686 125.86 209.686 126.003 L 209.678 184.579 C 209.678 184.642 209.698 184.705 209.735 184.757 C 209.795 184.849 209.805 184.955 209.768 185.073 C 209.741 185.155 209.665 185.209 209.581 185.207 Z" style=""/>
  <path fill="#ffffff" d="M 240.492 169.203 C 232.03 177.17 224.605 187.396 222.57 199.108 L 221.387 204 C 221.357 204.13 221.283 204.166 221.164 204.109 C 217.342 202.249 216.305 199.396 216.297 195.193 C 216.259 174.44 216.252 153.608 216.276 132.699 C 216.276 132.584 216.369 132.492 216.483 132.492 L 240.261 132.492 C 240.41 132.492 240.484 132.566 240.484 132.715 L 240.492 169.203 Z" style=""/>
  <path fill="#ffffff" d="M 135.366 187.716 L 140.574 187.724 C 140.714 187.727 140.785 187.658 140.785 187.517 L 140.785 183.355 C 140.785 183.22 140.852 183.152 140.987 183.152 L 164.692 183.152 C 164.802 183.152 164.891 183.241 164.891 183.351 C 164.885 187.563 164.866 191.797 164.834 196.052 C 164.821 197.822 164.633 199.126 164.271 199.963 C 162.297 204.563 156.368 206.237 151.877 206.245 C 142.588 206.261 133.299 206.261 124.01 206.245 C 121.956 206.24 120.345 206.059 119.175 205.702 C 115.965 204.717 111.572 202.095 111.179 198.294 C 111.068 197.205 111.011 196.337 111.008 195.692 C 110.981 187.983 110.98 170.26 111.004 142.523 C 111.008 137.42 114.672 134.421 119.118 133.055 C 120.312 132.688 122.031 132.503 124.273 132.5 C 132.803 132.489 141.336 132.487 149.871 132.492 C 153.283 132.492 155.65 132.687 156.971 133.076 C 159.39 133.786 161.45 135.12 163.152 137.076 C 164.365 138.47 164.969 140.21 164.964 142.296 C 164.939 154.365 164.911 166.434 164.879 178.504 C 164.879 178.631 164.815 178.694 164.688 178.694 L 135.366 178.694 C 135.196 178.694 135.111 178.779 135.111 178.95 L 135.111 187.46 C 135.111 187.631 135.196 187.716 135.366 187.716 Z M 140.785 151.139 C 140.785 151.072 140.73 151.018 140.663 151.018 L 135.232 151.018 C 135.165 151.018 135.111 151.072 135.111 151.139 L 135.111 159.934 C 135.111 160.001 135.165 160.055 135.232 160.055 L 140.663 160.055 C 140.73 160.055 140.785 160.001 140.785 159.934 L 140.785 151.139 Z" style=""/>
  <path fill="#ffffff" d="M 176.526 202.934 C 173.227 200.284 173.43 198.046 173.426 193.523 C 173.404 173.24 173.4 152.966 173.414 132.699 C 173.414 132.584 173.506 132.492 173.62 132.492 L 197.321 132.492 C 197.456 132.492 197.524 132.56 197.524 132.695 L 197.524 187.509 C 197.524 187.621 197.615 187.712 197.727 187.712 L 212.722 187.712 C 212.834 187.712 212.925 187.803 212.925 187.914 L 212.925 206.047 C 212.925 206.179 212.857 206.245 212.722 206.245 C 204.171 206.261 195.626 206.261 187.088 206.245 C 182.452 206.237 179.914 205.658 176.526 202.934 Z" style=""/>
  <path fill="#ffffff" d="M 80.102 188.632 L 80.089 171.707 C 80.089 171.537 80.227 171.399 80.397 171.399 L 104.098 171.399 C 104.236 171.399 104.305 171.468 104.305 171.606 C 104.316 180.465 104.316 189.349 104.305 198.257 C 104.297 202.792 98.826 206.168 94.959 206.942 C 94.073 207.118 91.469 207.221 87.145 207.25 C 79.391 207.299 71.637 207.29 63.882 207.222 C 61.429 207.201 59.559 206.994 58.273 206.602 C 54.573 205.479 50.411 202.614 50.411 198.237 C 50.405 179.405 50.405 160.571 50.411 141.737 C 50.411 141.077 50.666 140.275 51.177 139.329 C 53.223 135.544 58.492 133.404 62.545 133.343 C 67.149 133.27 76.207 133.262 89.719 133.319 C 96.447 133.347 104.273 135.665 104.297 143.836 C 104.318 150.661 104.32 157.486 104.301 164.311 C 104.301 164.443 104.235 164.509 104.102 164.509 L 80.296 164.509 C 80.184 164.509 80.094 164.419 80.094 164.307 L 80.102 152.201 C 80.102 152.031 80.015 151.946 79.842 151.946 L 74.57 151.946 C 74.402 151.946 74.318 152.029 74.318 152.197 L 74.318 188.624 C 74.318 188.759 74.386 188.826 74.521 188.826 L 79.907 188.826 C 80.037 188.826 80.102 188.761 80.102 188.632 Z" style=""/>
  <path fill="#000000" d="M 257.125 138.097 C 257.124 138.059 257.149 138.024 257.186 138.012 C 259.593 137.388 261.892 136.492 264.083 135.325 C 264.246 135.241 264.34 135.289 264.367 135.467 L 264.878 138.547 C 264.905 138.709 264.845 138.828 264.699 138.904 L 257.327 142.58 C 257.221 142.633 257.094 142.557 257.092 142.438 L 257.125 138.097 Z" style=""/>
  <path fill="#3454a0" d="M 326.849 144.873 L 326.821 150.126 C 326.818 150.277 326.891 150.344 327.04 150.324 L 328.847 150.106 C 336.232 148.095 343.613 146.126 350.992 144.197 C 353.971 143.423 357.505 142.863 359.953 144.772 C 361.436 145.931 361.943 147.666 361.473 149.976 C 359.93 152.164 357.618 153.59 354.538 154.252 C 348.862 155.476 343.186 156.709 337.512 157.952 C 333.83 158.76 330.34 159.889 327.044 161.34 C 326.767 161.46 326.557 161.7 326.473 161.993 C 325.974 163.715 326.047 165.433 325.966 167.067 C 325.709 172.295 325.665 177.523 325.832 182.751 C 326.059 189.827 325.99 196.243 326.002 202.987 C 326.015 208.268 326.404 214.254 326.44 219.907 C 326.451 221.885 326.717 225.937 327.239 232.062 C 327.652 236.97 329.006 241.545 329.759 246.271 C 330.286 249.562 328.207 252.302 324.941 252.391 C 320.888 252.496 318.764 249.003 318.095 245.464 C 316.685 238.048 316.089 230.68 315.672 223.105 C 315.474 219.574 315.408 216.053 315.473 212.543 C 315.477 212.449 315.376 212.389 315.29 212.434 C 315.28 212.44 315.271 212.446 315.262 212.454 C 310.605 216.985 305.821 221.384 300.911 225.65 C 299.513 226.862 295.456 230.177 296.08 232.195 C 296.38 233.165 297.178 234.531 298.472 236.293 C 299.363 237.919 299.801 239.62 299.785 241.395 C 299.594 248.237 295.602 254.182 290.759 258.964 C 282.751 266.875 273 273.364 261.984 276.14 C 254.612 278 245.655 277.676 244.058 268.274 C 244.518 263.662 246.653 259.383 250.466 255.438 C 253.603 252.188 255.795 250.028 257.044 248.958 C 260.915 245.635 265.003 242.318 269.308 239.008 C 269.794 238.684 270.373 238.225 271.046 237.63 C 272.435 236.406 273.698 235.045 274.836 233.545 C 274.99 233.34 274.902 233.045 274.661 232.957 C 268.44 230.676 261.534 229.44 255.082 227.904 C 242.717 224.965 222.72 218.708 222.611 202.663 C 222.603 201.484 222.589 200.3 222.57 199.108 C 224.605 187.396 232.03 177.17 240.492 169.203 C 242.507 167.173 243.898 165.854 244.662 165.243 C 245.332 164.711 245.762 164.23 245.951 163.8 C 245.992 163.854 246.146 163.853 246.413 163.796 C 246.522 163.772 246.624 163.722 246.709 163.65 C 254.747 156.858 263.613 151.488 273.308 147.54 C 280.27 144.707 289.568 141.947 296.782 144.987 C 301.69 147.054 303.031 150.924 304.133 155.832 C 304.263 156.405 304.613 156.628 305.183 156.501 C 308.161 155.839 311.05 154.93 313.852 153.773 C 313.987 153.717 314.094 153.625 314.172 153.498 L 314.371 153.17 C 316.912 152.789 315.866 147.435 315.785 145.765 C 315.919 143.791 315.947 141.619 317.285 139.901 C 321.374 134.656 327.429 139.475 326.849 144.873 Z M 296.96 166.803 C 301.045 165.008 319.348 155.565 319.919 165.223 C 320.073 167.811 320.007 172.379 319.721 178.925 C 319.254 189.584 319.502 200.348 319.522 211.019 C 319.534 217.289 320.004 223.547 320.385 229.885 C 320.642 234.192 321.208 238.768 322.083 243.612 C 322.359 245.147 322.838 246.526 323.522 247.75 C 323.606 247.899 323.733 247.974 323.903 247.977 L 325.346 248.006 C 325.503 248.008 325.582 247.933 325.585 247.779 C 325.601 246.944 325.577 246.407 325.512 246.17 C 324.293 241.717 323.51 237.666 323.161 234.015 C 322.367 225.642 322.006 219.466 321.941 212.231 C 321.824 199.992 321.479 185.389 321.552 168.611 C 321.561 166.414 321.873 164.266 322.104 162.074 C 322.341 159.793 323.503 158.194 325.589 157.275 C 328.372 156.048 331.244 155.078 334.205 154.365 C 340.079 152.955 345.978 151.647 351.9 150.442 C 353.586 150.099 355.277 149.567 356.974 148.845 C 357.313 148.702 357.37 148.245 357.076 148.023 C 357.03 147.988 356.977 147.962 356.921 147.945 C 355.854 147.629 354.68 147.632 353.399 147.954 C 344.613 150.158 335.952 152.756 327.121 154.807 C 325.662 155.144 324.516 154.854 323.684 153.936 C 320.641 150.564 324.329 145.254 321.856 142.138 C 321.612 141.832 321.141 141.852 320.928 142.178 C 319.903 143.726 319.838 145.007 320.134 146.993 C 320.803 151.5 320.178 155.646 315.489 157.68 C 308.166 160.854 300.072 161.482 292.883 165.036 C 291.947 165.502 289.661 167.204 290.994 168.218 C 291.09 168.293 291.211 168.327 291.331 168.311 C 293.354 168.065 295.231 167.562 296.96 166.803 Z M 314.89 202.995 C 308.134 210.148 302.954 215.494 294.086 223.867 C 289.977 227.741 286.508 229.537 280.882 228.171 C 271.788 225.966 262.787 223.434 253.878 220.576 C 246.92 218.339 239.377 215.409 233.886 210.618 C 229.428 206.732 228.929 201.674 230.4 195.988 C 232.715 187.023 239.787 178.662 246.474 172.627 C 256.813 163.298 268.278 155.544 281.324 151.467 C 285.875 150.045 293.961 148.112 296.778 153.656 C 297.495 155.07 297.308 156.829 297.175 158.414 C 297.161 158.573 297.231 158.632 297.385 158.588 L 299.148 158.094 C 299.437 158.013 299.595 157.822 299.623 157.522 C 300.38 148.359 291.614 146.831 284.822 148.44 C 267.407 152.574 251.406 163.346 239.333 176.53 C 231.247 185.357 219.79 203.015 232.354 213.573 C 238.486 218.728 246.904 221.569 254.875 223.462 C 260.39 224.772 265.902 226.091 271.411 227.417 C 273.397 227.895 276.327 228.767 277.555 229.788 C 282.252 233.695 276.1 239.053 272.878 241.574 C 268.393 245.083 263.993 248.694 259.678 252.407 C 255.686 255.84 250.75 260.399 249.096 264.837 C 247.888 268.071 248.504 271.484 252.249 272.42 C 255.637 273.267 259.528 272.395 263.216 271.301 C 272.513 268.541 280.85 262.733 287.776 255.88 C 291.116 252.569 297.856 243.892 294.954 238.903 C 294.224 237.649 293.498 236.394 292.773 235.138 C 290.224 230.712 292.879 227.081 296.117 224.195 C 302.346 218.651 308.446 213.313 314.456 207.165 C 315.538 206.059 315.437 204.458 315.141 203.064 C 315.103 202.88 315.019 202.857 314.89 202.995 Z M 235.527 206.006 C 235.557 205.917 235.626 205.998 235.734 206.249 C 235.723 206.371 235.791 206.503 235.937 206.646 C 237.542 208.208 239.324 209.527 241.282 210.602 C 244.938 212.604 248.698 214.303 252.561 215.7 C 261.742 218.724 270.985 221.402 280.291 223.733 C 285.45 225.026 287.436 224.207 291.104 220.783 C 299.004 213.404 306.593 205.736 313.872 197.779 C 315.429 196.782 315.194 195.631 315.23 193.985 C 315.419 184.475 315.527 174.955 315.554 165.425 C 315.554 165.279 315.481 165.209 315.335 165.215 C 309.88 165.381 304.405 168.088 299.327 170.439 C 297.722 171.184 297.272 171.999 296.275 173.393 C 293.272 177.584 284.108 188.903 279.014 180.575 C 278.26 175.63 282.876 171.614 286.135 168.586 C 286.23 168.499 286.282 168.373 286.277 168.242 C 286.147 165.283 287.387 164.055 289.312 162.086 C 291.533 161.218 293.325 158.612 293.053 156.152 C 292.636 152.302 282.629 155.403 280.57 156.152 C 269.105 160.311 258.268 167.553 249.283 175.732 C 244.508 180.081 240.496 185.044 237.246 190.618 C 235.025 194.427 231.92 202.525 235.527 206.006 Z M 291.079 173.016 C 291.128 173.005 291.149 172.969 291.144 172.907 C 291.139 172.839 291.104 172.796 291.039 172.777 L 288.931 172.165 C 288.818 172.133 288.715 172.154 288.623 172.23 C 286.511 174.035 284.695 176.095 283.176 178.411 C 282.959 178.742 283.182 179.184 283.577 179.206 C 283.604 179.208 283.631 179.208 283.659 179.205 C 286.078 178.954 289.3 175.193 290.97 173.085 C 290.997 173.05 291.033 173.027 291.079 173.016 Z" style=""/>
  <path fill="#ffffff" d="M 319.919 165.223 C 319.348 155.565 301.045 165.008 296.96 166.803 C 295.231 167.562 293.354 168.065 291.331 168.311 C 291.211 168.327 291.09 168.293 290.994 168.218 C 289.661 167.204 291.947 165.502 292.883 165.036 C 300.072 161.482 308.166 160.854 315.489 157.68 C 320.178 155.646 320.803 151.5 320.134 146.993 C 319.838 145.007 319.903 143.726 320.928 142.178 C 321.141 141.852 321.612 141.832 321.856 142.138 C 324.329 145.254 320.641 150.564 323.684 153.936 C 324.516 154.854 325.662 155.144 327.121 154.807 C 335.952 152.756 344.613 150.158 353.399 147.954 C 354.68 147.632 355.854 147.629 356.921 147.945 C 357.275 148.048 357.385 148.495 357.119 148.75 C 357.077 148.79 357.028 148.822 356.974 148.845 C 355.277 149.567 353.586 150.099 351.9 150.442 C 345.978 151.647 340.079 152.955 334.205 154.365 C 331.244 155.078 328.372 156.048 325.589 157.275 C 323.503 158.194 322.341 159.793 322.104 162.074 C 321.873 164.266 321.561 166.414 321.552 168.611 C 321.479 185.389 321.824 199.992 321.941 212.231 C 322.006 219.466 322.367 225.642 323.161 234.015 C 323.51 237.666 324.293 241.717 325.512 246.17 C 325.577 246.407 325.601 246.944 325.585 247.779 C 325.582 247.933 325.503 248.008 325.346 248.006 L 323.903 247.977 C 323.733 247.974 323.606 247.899 323.522 247.75 C 322.838 246.526 322.359 245.147 322.083 243.612 C 321.208 238.768 320.642 234.192 320.385 229.885 C 320.004 223.547 319.534 217.289 319.522 211.019 C 319.502 200.348 319.254 189.584 319.721 178.925 C 320.007 172.379 320.073 167.811 319.919 165.223 Z" style=""/>
  <path fill="#000000" d="M 326.849 144.873 C 327.984 146.36 328.65 148.104 328.847 150.106 L 327.04 150.324 C 326.891 150.344 326.818 150.277 326.821 150.126 L 326.849 144.873 Z" style=""/>
  <path fill="#000000" d="M 315.785 145.765 C 315.866 147.435 316.912 152.789 314.371 153.17 C 314.041 150.543 314.513 148.075 315.785 145.765 Z" style=""/>
  <path fill="#ffffff" d="M 294.086 223.867 C 302.954 215.494 308.134 210.148 314.89 202.995 C 315.019 202.857 315.103 202.88 315.141 203.064 C 315.437 204.458 315.538 206.059 314.456 207.165 C 308.446 213.313 302.346 218.651 296.117 224.195 C 292.879 227.081 290.224 230.712 292.773 235.138 C 293.498 236.394 294.224 237.649 294.954 238.903 C 297.856 243.892 291.116 252.569 287.776 255.88 C 280.85 262.733 272.513 268.541 263.216 271.301 C 259.528 272.395 255.637 273.267 252.249 272.42 C 248.504 271.484 247.888 268.071 249.096 264.837 C 250.75 260.399 255.686 255.84 259.678 252.407 C 263.993 248.694 268.393 245.083 272.878 241.574 C 276.1 239.053 282.252 233.695 277.555 229.788 C 276.327 228.767 273.397 227.895 271.411 227.417 C 265.902 226.091 260.39 224.772 254.875 223.462 C 246.904 221.569 238.486 218.728 232.354 213.573 C 219.79 203.015 231.247 185.357 239.333 176.53 C 251.406 163.346 267.407 152.574 284.822 148.44 C 291.614 146.831 300.38 148.359 299.623 157.522 C 299.595 157.822 299.437 158.013 299.148 158.094 L 297.385 158.588 C 297.231 158.632 297.161 158.573 297.175 158.414 C 297.308 156.829 297.495 155.07 296.778 153.656 C 293.961 148.112 285.875 150.045 281.324 151.467 C 268.278 155.544 256.813 163.298 246.474 172.627 C 239.787 178.662 232.715 187.023 230.4 195.988 C 228.929 201.674 229.428 206.732 233.886 210.618 C 239.377 215.409 246.92 218.339 253.878 220.576 C 262.787 223.434 271.788 225.966 280.882 228.171 C 286.508 229.537 289.977 227.741 294.086 223.867 Z M 251.455 268.132 C 252.65 271.686 257.72 270.815 260.326 270.134 C 271.784 267.135 286.889 258.798 291.529 247.15 C 292.952 243.576 293.483 237.063 288.814 235.697 C 286.281 234.955 282.734 235.977 280.489 237.432 C 274.718 241.16 248.707 259.978 251.455 268.132 Z" style=""/>
  <path fill="#000000" d="M 361.473 149.976 C 365.209 153.648 363.215 158.187 359.203 160.538 C 358.047 161.218 356.124 161.832 353.436 162.378 C 345.16 164.055 336.256 165.531 328.406 168.663 C 328.224 168.736 328.099 168.904 328.081 169.097 C 327.944 170.54 327.628 171.999 327.628 173.426 C 327.615 182.909 327.494 192.417 327.721 201.897 C 327.861 207.711 327.965 213.527 328.033 219.344 C 328.15 229.358 328.661 239.823 331.012 249.582 C 331.53 251.727 331.745 253.249 331.656 254.146 C 331.312 257.623 328.738 259.868 325.289 260.091 C 320.312 260.415 317.678 256.476 316.762 251.973 C 315.453 245.525 314.926 239.203 314.415 232.666 C 314.156 229.29 314.269 226.477 313.957 222.542 C 313.944 222.388 313.88 222.363 313.767 222.469 L 298.472 236.293 C 297.178 234.531 296.38 233.165 296.08 232.195 C 295.456 230.177 299.513 226.862 300.911 225.65 C 305.821 221.384 310.605 216.985 315.262 212.454 C 315.333 212.388 315.448 212.419 315.47 212.511 C 315.472 212.521 315.474 212.532 315.473 212.543 C 315.408 216.053 315.474 219.574 315.672 223.105 C 316.089 230.68 316.685 238.048 318.095 245.464 C 318.764 249.003 320.888 252.496 324.941 252.391 C 328.207 252.302 330.286 249.562 329.759 246.271 C 329.006 241.545 327.652 236.97 327.239 232.062 C 326.717 225.937 326.451 221.885 326.44 219.907 C 326.404 214.254 326.015 208.268 326.002 202.987 C 325.99 196.243 326.059 189.827 325.832 182.751 C 325.665 177.523 325.709 172.295 325.966 167.067 C 326.047 165.433 325.974 163.715 326.473 161.993 C 326.557 161.7 326.767 161.46 327.044 161.34 C 330.34 159.889 333.83 158.76 337.512 157.952 C 343.186 156.709 348.862 155.476 354.538 154.252 C 357.618 153.59 359.93 152.164 361.473 149.976 Z" style=""/>
  <rect fill="#000000" x="135.111" y="151.017" width="5.674" height="9.038" rx="0.3" style=""/>
  <path fill="#000000" d="M 289.312 162.086 C 288.067 162.07 286.893 162.204 285.79 162.491 C 272.072 166.049 258.722 175.14 248.691 184.948 C 248.616 185.018 248.645 185.143 248.744 185.173 C 248.757 185.177 248.771 185.179 248.784 185.179 L 262.369 185.179 C 262.481 185.179 262.572 185.269 262.572 185.381 L 262.572 215.372 C 262.572 215.515 262.5 215.588 262.357 215.591 L 252.561 215.7 C 248.698 214.303 244.938 212.604 241.282 210.602 C 239.324 209.527 237.542 208.208 235.937 206.646 C 235.791 206.503 235.723 206.371 235.734 206.249 L 255.682 206.249 C 255.817 206.249 255.885 206.18 255.885 206.043 L 255.885 188.016 C 255.885 187.881 255.817 187.813 255.682 187.813 L 246.231 187.777 C 246.106 187.777 246.001 187.822 245.915 187.914 C 241.42 192.603 236.885 198.991 235.803 205.54 C 235.784 205.665 235.692 205.82 235.527 206.006 C 231.92 202.525 235.025 194.427 237.246 190.618 C 240.496 185.044 244.508 180.081 249.283 175.732 C 258.268 167.553 269.105 160.311 280.57 156.152 C 282.629 155.403 292.636 152.302 293.053 156.152 C 293.325 158.612 291.533 161.218 289.312 162.086 Z" style=""/>
  <path fill="#000000" d="M 313.872 197.779 C 313.722 189.596 314.14 181.458 314.282 173.389 C 314.285 173.131 314.047 172.937 313.795 172.992 C 308.859 174.062 304.539 176.129 300 178.151 C 299.502 178.37 299.089 178.704 298.759 179.152 C 295.367 183.732 286.828 195.165 279.962 190.038 C 276.753 187.643 276.7 183.691 279.014 180.575 C 284.108 188.903 293.272 177.584 296.275 173.393 C 297.272 171.999 297.722 171.184 299.327 170.439 C 304.405 168.088 309.88 165.381 315.335 165.215 C 315.481 165.209 315.554 165.279 315.554 165.425 C 315.527 174.955 315.419 184.475 315.23 193.985 C 315.194 195.631 315.429 196.782 313.872 197.779 Z" style=""/>
  <path fill="#3454a0" d="M 405.357 173.912 C 405.303 173.917 405.252 173.923 405.207 173.928 C 405.104 173.943 405.015 174.003 404.963 174.09 C 404.331 175.165 403.637 175.953 402.88 176.453 C 393.372 182.759 390.438 193.082 386.896 203.416 C 386.172 205.527 385.487 206.941 384.841 207.66 C 382.977 209.731 379.577 210.254 377.307 208.405 C 374.9 206.444 374.661 202.002 374.628 198.752 C 374.625 198.589 374.544 198.523 374.385 198.553 C 370.037 199.364 365.662 199.965 361.258 200.357 C 361.085 200.373 360.832 200.465 360.5 200.632 C 360.378 200.694 360.292 200.789 360.241 200.916 C 357.671 207.66 352.054 213.565 345.043 215.656 C 337.31 217.97 330.189 213.5 330.193 205.196 C 330.685 200.911 332.334 196.608 335.142 192.287 C 336.628 189.999 338.623 188.717 341.128 188.441 C 341.271 188.425 341.341 188.345 341.338 188.202 C 341.261 183.793 344.309 181.782 348.39 181.474 C 352.108 181.194 355.223 182.624 357.736 185.766 C 360.228 188.883 361.704 191.461 366.255 190.378 C 368.897 189.752 371.295 188.794 373.449 187.505 L 374.778 186.682 C 374.905 186.604 374.966 186.491 374.96 186.342 L 374.75 180.968 C 374.879 179.414 375.077 178.119 375.341 177.081 C 376.622 172.023 383.277 171.269 385.405 176.145 C 385.757 176.947 385.935 177.981 386.098 178.97 C 386.112 179.069 386.229 179.114 386.307 179.052 C 386.323 179.039 386.336 179.022 386.345 179.002 C 388.627 173.823 393.53 167.253 399.683 167.277 C 403.521 167.29 406.033 169.636 405.243 173.64 C 405.23 173.702 405.232 173.753 405.251 173.79 C 405.276 173.839 405.311 173.879 405.357 173.912 Z M 380.282 205.281 C 380.437 205.398 380.644 205.421 380.821 205.341 C 381.521 205.023 382.003 204.469 382.268 203.68 C 386.073 192.263 389.834 179.594 400.655 172.769 C 401.044 172.523 401.082 171.972 400.732 171.675 C 399.569 170.694 396.554 172.485 395.618 173.312 C 392.193 176.331 390.284 180.494 388.002 184.368 C 387.281 185.596 386.219 186.824 384.683 186.804 C 379.609 186.739 383.638 178.034 380.764 177.093 C 379.475 176.668 379.009 179.509 379.017 180.518 C 379.061 186.889 379.051 193.259 378.989 199.627 C 378.973 201.127 379.05 204.349 380.282 205.281 Z M 345.894 188.243 C 349.201 189.933 353.562 190.046 354.603 194.456 C 356.03 200.498 347.73 209.52 341.881 209.917 C 340.755 209.993 339.798 209.793 339.012 209.317 C 334.088 206.33 339.202 198.346 341.14 195.064 C 341.442 194.548 341.629 194.06 341.699 193.6 C 341.77 193.136 341.352 192.744 340.892 192.847 C 339.583 193.143 339.336 193.71 338.505 194.93 C 336.025 198.589 332.43 206.351 336.041 209.986 C 338.603 212.568 342.98 212.385 346.088 210.748 C 351.06 208.133 354.51 204.178 356.439 198.885 C 357.477 196.048 360.415 196.133 363.191 195.915 C 366.979 195.612 370.716 194.999 374.401 194.075 C 374.513 194.045 374.592 193.949 374.6 193.836 L 374.721 191.951 C 374.732 191.778 374.662 191.733 374.511 191.817 C 370.94 193.746 365.866 195.55 362.056 194.646 C 358.599 193.823 356.982 191.647 354.822 188.952 C 352.678 186.285 350.404 184.842 346.818 186.103 C 346.214 186.314 345.533 186.93 345.496 187.55 C 345.479 187.84 345.635 188.112 345.894 188.243 Z M 348.528 200.365 C 349.241 199.514 351.381 195.651 350.04 194.658 C 349.062 193.932 347.731 193.414 346.048 193.106 C 345.899 193.079 345.829 193.141 345.837 193.292 C 345.918 194.592 345.821 195.494 345.545 196 C 343.92 198.97 341.906 201.868 341.152 205.236 C 341.068 205.601 341.21 205.744 341.577 205.666 C 344.917 204.961 346.485 202.821 348.528 200.365 Z" style=""/>
  <path fill="#3454a0" d="M 429.438 178.167 C 428.66 186.269 421.726 191.108 414.427 192.867 C 413.543 193.078 412.299 193.434 412.007 194.318 C 411.679 195.307 412.802 196.409 413.653 196.523 C 419.116 197.252 426.796 191.712 430.581 188.129 C 433.913 185.057 437.182 181.441 440.389 177.28 C 442.606 174.402 446.148 172.506 449.504 174.771 C 451.325 175.998 451.991 177.882 451.502 180.425 C 450.867 181.576 449.803 183.031 448.308 184.79 C 440.199 194.33 430.533 202.881 418.516 206.298 C 414.768 207.365 411.326 207.214 408.19 205.844 C 402.788 203.488 400.376 198.941 400.951 192.202 L 402.783 184.79 C 403.931 182.023 405.373 179.374 407.107 176.842 C 411.395 170.572 420.583 164.307 427.246 171.873 C 428.718 173.546 429.449 175.644 429.438 178.167 Z M 441.496 182.654 C 435.372 190.147 427.805 197.706 417.912 200.413 C 416.264 200.862 414.889 201.028 413.786 200.912 C 408.157 200.312 405.162 193.487 410.329 189.884 C 411.764 188.887 413.953 188.717 415.448 188.194 C 419.554 186.747 424.304 183.408 425.053 178.868 C 425.738 174.735 421.592 171.464 417.706 173.162 C 411.193 176.007 406.897 184.226 405.559 190.824 C 404.684 195.169 405.049 199.173 409.037 201.459 C 414.046 204.328 421.657 201.22 426.379 198.415 C 434.245 193.738 441.062 187.047 446.845 179.878 C 447.021 179.659 447.168 179.372 447.287 179.018 C 447.325 178.908 447.313 178.802 447.251 178.702 C 446.702 177.797 446.039 177.696 445.261 178.398 C 444.526 179.06 443.271 180.479 441.496 182.654 Z" style=""/>
  <path fill="#000000" d="M 363.483 175.452 C 362.289 174.403 360.996 173.501 359.604 172.745 C 359.479 172.674 359.477 172.495 359.601 172.422 C 359.614 172.414 359.627 172.409 359.641 172.404 C 362.045 171.718 364.302 170.703 366.409 169.361 C 366.456 169.329 366.518 169.36 366.522 169.416 C 366.524 169.432 366.52 169.448 366.51 169.462 C 365.289 171.37 364.465 173.439 364.038 175.671 C 364.011 175.814 363.93 175.856 363.795 175.796 C 363.706 175.756 363.642 175.695 363.604 175.614 C 363.575 175.552 363.534 175.498 363.483 175.452 Z" style=""/>
  <path fill="#ffffff" d="M 380.282 205.281 C 379.05 204.349 378.973 201.127 378.989 199.627 C 379.051 193.259 379.061 186.889 379.017 180.518 C 379.009 179.509 379.475 176.668 380.764 177.093 C 383.638 178.034 379.609 186.739 384.683 186.804 C 386.219 186.824 387.281 185.596 388.002 184.368 C 390.284 180.494 392.193 176.331 395.618 173.312 C 396.554 172.485 399.569 170.694 400.732 171.675 C 401.082 171.972 401.044 172.523 400.655 172.769 C 389.834 179.594 386.073 192.263 382.268 203.68 C 382.003 204.469 381.521 205.023 380.821 205.341 C 380.644 205.421 380.437 205.398 380.282 205.281 Z" style=""/>
  <path fill="#ffffff" d="M 290.97 173.085 C 289.3 175.193 286.078 178.954 283.659 179.205 C 283.264 179.245 282.975 178.843 283.137 178.482 C 283.148 178.457 283.161 178.433 283.176 178.411 C 284.695 176.095 286.511 174.035 288.623 172.23 C 288.715 172.154 288.818 172.133 288.931 172.165 L 291.039 172.777 C 291.104 172.796 291.139 172.839 291.144 172.907 C 291.149 172.969 291.128 173.005 291.079 173.016 C 291.033 173.027 290.997 173.05 290.97 173.085 Z" style=""/>
  <path fill="#ffffff" d="M 417.912 200.413 C 427.805 197.706 435.372 190.147 441.496 182.654 C 443.271 180.479 444.526 179.06 445.261 178.398 C 446.039 177.696 446.702 177.797 447.251 178.702 C 447.313 178.802 447.325 178.908 447.287 179.018 C 447.168 179.372 447.021 179.659 446.845 179.878 C 441.062 187.047 434.245 193.738 426.379 198.415 C 421.657 201.22 414.046 204.328 409.037 201.459 C 405.049 199.173 404.684 195.169 405.559 190.824 C 406.897 184.226 411.193 176.007 417.706 173.162 C 421.592 171.464 425.738 174.735 425.053 178.868 C 424.304 183.408 419.554 186.747 415.448 188.194 C 413.953 188.717 411.764 188.887 410.329 189.884 C 405.162 193.487 408.157 200.312 413.786 200.912 C 414.889 201.028 416.264 200.862 417.912 200.413 Z M 413.502 184.616 C 414.838 185.815 417.598 184.917 419.667 182.612 C 421.736 180.306 422.329 177.465 420.994 176.266 C 419.657 175.067 416.897 175.965 414.828 178.27 C 412.759 180.576 412.165 183.417 413.502 184.616 Z" style=""/>
  <path fill="#000000" d="M 405.357 173.912 C 406.073 174.571 406.656 175.548 407.107 176.842 C 405.373 179.374 403.931 182.023 402.783 184.79 C 394.483 190.824 391.662 201.204 388.481 210.371 C 387.095 214.367 385.084 217.435 380.594 217.289 C 374.835 217.103 373.356 211.745 373.4 206.914 C 373.403 206.732 373.238 206.593 373.06 206.626 C 369.518 207.278 365.951 207.722 362.36 207.96 C 362.022 207.982 361.726 208.194 361.594 208.507 C 358.291 216.337 350.449 223.616 341.788 224.074 C 338.562 224.241 335.718 223.327 333.257 221.33 C 328.236 217.253 327.826 210.817 330.193 205.196 C 330.189 213.5 337.31 217.97 345.043 215.656 C 352.054 213.565 357.671 207.66 360.241 200.916 C 360.292 200.789 360.378 200.694 360.5 200.632 C 360.832 200.465 361.085 200.373 361.258 200.357 C 365.662 199.965 370.037 199.364 374.385 198.553 C 374.544 198.523 374.625 198.589 374.628 198.752 C 374.661 202.002 374.9 206.444 377.307 208.405 C 379.577 210.254 382.977 209.731 384.841 207.66 C 385.487 206.941 386.172 205.527 386.896 203.416 C 390.438 193.082 393.372 182.759 402.88 176.453 C 403.637 175.953 404.331 175.165 404.963 174.09 C 405.015 174.003 405.104 173.943 405.207 173.928 C 405.252 173.923 405.303 173.917 405.357 173.912 Z" style=""/>
  <ellipse fill="#3454a0" transform="matrix(-0.667833, 0.744312, -0.744312, -0.667833, 417.247131, 180.440796)" rx="5.609" ry="3.25" style=""/>
  <path fill="#000000" d="M 429.438 178.167 C 431.497 181.264 431.424 184.607 430.581 188.129 C 426.796 191.712 419.116 197.252 413.653 196.523 C 412.802 196.409 411.679 195.307 412.007 194.318 C 412.299 193.434 413.543 193.078 414.427 192.867 C 421.726 191.108 428.66 186.269 429.438 178.167 Z" style=""/>
  <path fill="#000000" d="M 451.502 180.425 C 453.715 182.536 453.917 185.839 452.503 188.413 C 452.241 188.888 451.486 189.876 450.238 191.375 C 444.503 198.265 438.014 204.357 430.395 209.127 C 425.313 212.308 417.337 215.611 411.278 214.497 C 404.177 213.188 399.358 207.684 399.395 200.369 C 399.406 197.899 399.925 195.177 400.951 192.202 C 400.376 198.941 402.788 203.488 408.19 205.844 C 411.326 207.214 414.768 207.365 418.516 206.298 C 430.533 202.881 440.199 194.33 448.308 184.79 C 449.803 183.031 450.867 181.576 451.502 180.425 Z" style=""/>
  <path fill="#000000" d="M 374.75 180.968 L 374.96 186.342 C 374.966 186.491 374.905 186.604 374.778 186.682 L 373.449 187.505 C 373.257 185.198 373.691 183.019 374.75 180.968 Z" style=""/>
  <path fill="#ffffff" d="M 345.894 188.243 C 345.635 188.112 345.479 187.84 345.496 187.55 C 345.533 186.93 346.214 186.314 346.818 186.103 C 350.404 184.842 352.678 186.285 354.822 188.952 C 356.982 191.647 358.599 193.823 362.056 194.646 C 365.866 195.55 370.94 193.746 374.511 191.817 C 374.662 191.733 374.732 191.778 374.721 191.951 L 374.6 193.836 C 374.592 193.949 374.513 194.045 374.401 194.075 C 370.716 194.999 366.979 195.612 363.191 195.915 C 360.415 196.133 357.477 196.048 356.439 198.885 C 354.51 204.178 351.06 208.133 346.088 210.748 C 342.98 212.385 338.603 212.568 336.041 209.986 C 332.43 206.351 336.025 198.589 338.505 194.93 C 339.336 193.71 339.583 193.143 340.892 192.847 C 341.352 192.744 341.77 193.136 341.699 193.6 C 341.629 194.06 341.442 194.548 341.14 195.064 C 339.202 198.346 334.088 206.33 339.012 209.317 C 339.798 209.793 340.755 209.993 341.881 209.917 C 347.73 209.52 356.03 200.498 354.603 194.456 C 353.562 190.046 349.201 189.933 345.894 188.243 Z" style=""/>
  <path fill="#ffffff" d="M 235.734 206.249 C 235.626 205.998 235.557 205.917 235.527 206.006 C 235.692 205.82 235.784 205.665 235.803 205.54 C 236.885 198.991 241.42 192.603 245.915 187.914 C 246.001 187.822 246.106 187.777 246.231 187.777 L 255.682 187.813 C 255.817 187.813 255.885 187.881 255.885 188.016 L 255.885 206.043 C 255.885 206.18 255.817 206.249 255.682 206.249 L 235.734 206.249 Z" style=""/>
  <path fill="#000000" d="M 273.928 210.286 C 273.803 210.25 273.717 210.136 273.717 210.006 L 273.717 199.793 C 273.717 199.659 273.864 199.576 273.983 199.644 C 273.985 199.645 273.987 199.646 273.989 199.647 C 279.573 203.262 285.884 203.453 291.918 200.742 C 296.153 198.837 299.302 195.846 302.431 192.454 C 302.582 192.289 302.657 192.319 302.654 192.543 C 302.651 193.01 302.505 193.402 302.216 193.718 C 296.351 200.113 290.023 206.417 283.233 212.628 C 283.128 212.726 283.007 212.755 282.872 212.718 L 273.928 210.286 Z" style=""/>
  <path fill="#000000" d="M 348.528 200.365 C 346.485 202.821 344.917 204.961 341.577 205.666 C 341.21 205.744 341.068 205.601 341.152 205.236 C 341.906 201.868 343.92 198.97 345.545 196 C 345.821 195.494 345.918 194.592 345.837 193.292 C 345.829 193.141 345.899 193.079 346.048 193.106 C 347.731 193.414 349.062 193.932 350.04 194.658 C 351.381 195.651 349.241 199.514 348.528 200.365 Z" style=""/>
  <path fill="#3454a0" d="M 260.326 270.134 C 257.72 270.815 252.65 271.686 251.455 268.132 C 248.707 259.978 274.718 241.16 280.489 237.432 C 282.734 235.977 286.281 234.955 288.814 235.697 C 293.483 237.063 292.952 243.576 291.529 247.15 C 286.889 258.798 271.784 267.135 260.326 270.134 Z M 263.694 264.711 C 268.99 262.747 273.892 260.021 278.402 256.533 C 281.733 253.96 284.526 250.941 286.779 247.475 C 287.76 245.721 288.269 243.73 288.307 241.501 C 288.372 237.529 282.26 241.27 281.016 242.194 C 273.648 247.665 266.718 252.995 260.237 259.54 C 258.24 261.558 256.655 263.817 255.479 266.316 C 255.403 266.477 255.53 266.66 255.707 266.645 C 255.709 266.645 255.712 266.645 255.714 266.644 C 258.649 266.296 261.308 265.651 263.694 264.711 Z" style=""/>
  <path fill="#000000" d="M 286.779 247.475 C 284.91 247.985 282.855 249.075 280.615 250.745 C 273.736 255.868 268.096 260.523 263.694 264.711 C 261.308 265.651 258.649 266.296 255.714 266.644 C 255.538 266.665 255.406 266.486 255.476 266.323 C 255.477 266.321 255.478 266.318 255.479 266.316 C 256.655 263.817 258.24 261.558 260.237 259.54 C 266.718 252.995 273.648 247.665 281.016 242.194 C 282.26 241.27 288.372 237.529 288.307 241.501 C 288.269 243.73 287.76 245.721 286.779 247.475 Z" style=""/>
  <path fill="#000000" d="M 299.785 241.395 C 305.151 249.691 297.86 260.472 292.08 266.219 C 282.868 275.378 271.634 282.503 258.592 284.53 C 248.152 286.151 239.349 279.431 244.058 268.274 C 245.655 277.676 254.612 278 261.984 276.14 C 273 273.364 282.751 266.875 290.759 258.964 C 295.602 254.182 299.594 248.237 299.785 241.395 Z" style=""/>
  <path fill="#ffffff" d="M 101.261 319.732 L 98.197 319.732 L 101.261 319.732 Z" style=""/>
</svg>